HIERARCHY
ROOT Hips
{
	OFFSET -3.958830 18.904000 13.208200
	CHANNELS 6 Xposition Yposition Zposition Zrotation Yrotation Xrotation 
	JOINT LHipJoint
	{
		OFFSET 0.000000 0.000000 0.000000
		CHANNELS 3 Zrotation Yrotation Xrotation
		JOINT LeftUpLeg
		{
			OFFSET 1.800000 -1.400000 0.085000
			CHANNELS 3 Zrotation Yrotation Xrotation
			JOINT LeftLeg
			{
				OFFSET 2.215000 -6.000000 0.000000
				CHANNELS 3 Zrotation Yrotation Xrotation
				JOINT LeftFoot
				{
					OFFSET 2.500000 -6.900000 0.000000
					CHANNELS 3 Zrotation Yrotation Xrotation
					JOINT LeftToeBase
					{
						OFFSET 0.200000 -0.500000 1.950000
						CHANNELS 3 Zrotation Yrotation Xrotation
						End Site
						{
							OFFSET 0.000000 0.000000 0.000000
						}
					}
				}
			}
		}
	}
	JOINT RHipJoint
	{
		OFFSET 0.000000 0.000000 0.000000
		CHANNELS 3 Zrotation Yrotation Xrotation
		JOINT RightUpLeg
		{
			OFFSET -1.800000 -1.400000 0.085000
			CHANNELS 3 Zrotation Yrotation Xrotation
			JOINT RightLeg
			{
				OFFSET -2.215000 -6.000000 0.000000
				CHANNELS 3 Zrotation Yrotation Xrotation
				JOINT RightFoot
				{
					OFFSET -2.500000 -6.900000 0.000000
					CHANNELS 3 Zrotation Yrotation Xrotation
					JOINT RightToeBase
					{
						OFFSET -0.200000 -0.500000 1.950000
						CHANNELS 3 Zrotation Yrotation Xrotation
						End Site
						{
							OFFSET 0.000000 0.000000 0.000000
						}
					}
				}
			}
		}
	}
	JOINT LowerBack
	{
		OFFSET 0.000000 0.000000 0.000000
		CHANNELS 3 Zrotation Yrotation Xrotation
		JOINT Spine
		{
			OFFSET -0.087000 1.940000 -0.288900
			CHANNELS 3 Zrotation Yrotation Xrotation
			JOINT Spine1
			{
				OFFSET 0.000000 1.950000 0.060000
				CHANNELS 3 Zrotation Yrotation Xrotation
				JOINT Neck
				{
					OFFSET 0.000000 0.000000 0.000000
					CHANNELS 3 Zrotation Yrotation Xrotation
					JOINT Neck1
					{
						OFFSET 0.000000 1.600000 0.340000
						CHANNELS 3 Zrotation Yrotation Xrotation
						JOINT Head
						{
							OFFSET 0.000000 1.667000 -0.240000
							CHANNELS 3 Zrotation Yrotation Xrotation
							End Site
							{
								OFFSET 0.000000 0.000000 0.000000
							}
						}
					}
				}
				JOINT LeftShoulder
				{
					OFFSET 0.000000 0.000000 0.000000
					CHANNELS 3 Zrotation Yrotation Xrotation
					JOINT LeftArm
					{
						OFFSET 2.700000 1.550000 -0.730000
						CHANNELS 3 Zrotation Yrotation Xrotation
						JOINT LeftForeArm
						{
							OFFSET 5.450000 0.000000 0.000000
							CHANNELS 3 Zrotation Yrotation Xrotation
							JOINT LeftHand
							{
								OFFSET 3.450000 0.000000 0.000000
								CHANNELS 3 Zrotation Yrotation Xrotation
								JOINT LeftHandIndex1
								{
									OFFSET 0.750000 0.000000 0.000000
									CHANNELS 3 Zrotation Yrotation Xrotation
									End Site
									{
										OFFSET 0.000000 0.000000 0.000000
									}
								}
							}
						}
					}
				}
				JOINT RightShoulder
				{
					OFFSET 0.000000 0.000000 0.000000
					CHANNELS 3 Zrotation Yrotation Xrotation
					JOINT RightArm
					{
						OFFSET -2.700000 1.550000 -0.730000
						CHANNELS 3 Zrotation Yrotation Xrotation
						JOINT RightForeArm
						{
							OFFSET -5.450000 0.000000 0.000000
							CHANNELS 3 Zrotation Yrotation Xrotation
							JOINT RightHand
							{
								OFFSET -3.450000 0.000000 0.000000
								CHANNELS 3 Zrotation Yrotation Xrotation
								JOINT RightHandIndex1
								{
									OFFSET -0.750000 0.000000 0.000000
									CHANNELS 3 Zrotation Yrotation Xrotation
									End Site
									{
										OFFSET 0.000000 0.000000 0.000000
									}
								}
							}
						}
					}
				}
			}
		}
	}
}
MOTION
Frames: 6
Frame Time: 0.016667
-2.573450 19.395160 -2.879960 -16.422479 23.033855 -5.995134 -14.823835 11.981658 1.631334 5.640425 -1.091024 -10.320041 -1.182357 3.763596 10.406245 -1.022805 3.824145 3.381973 0.125510 -0.166750 -0.114400 19.028841 -9.360742 5.215277 1.168611 13.194524 -51.539842 2.750045 -16.094051 70.248483 -2.117323 -11.431240 0.312910 0.001630 0.703460 0.602560 -5.537440 -0.428107 -8.244291 27.999551 -12.468502 18.888414 -12.267167 -6.493830 17.522130 3.275901 2.714133 -8.467350 1.996629 -2.257083 50.101019 5.118270 -4.089170 -14.865470 -8.585919 -5.776846 1.610958 8.087555 14.617380 -2.093240 36.877701 -59.539313 -17.855521 -3.854865 2.841701 0.874560 0.195590 0.173180 0.267310 3.308788 -1.232863 5.880082 0.264424 -23.583470 -2.281499 26.213617 69.676435 14.569608 1.951291 -1.878461 -0.360930 0.484570 0.417690 0.011040 
-2.470730 19.294060 -2.902120 -13.840430 23.322927 -6.787720 -14.899236 12.319623 1.813060 3.844303 -0.944169 -9.271135 -1.267945 4.015803 12.476589 -1.028918 4.004558 3.272829 0.182970 -0.110130 -0.100200 18.885061 -9.489551 4.972687 0.541199 11.404262 -49.750417 3.483541 -13.757008 61.792534 -1.697726 -9.703555 0.730321 0.047190 0.673780 0.614650 -5.279683 -0.917960 -8.194316 24.089157 -12.266426 22.618640 -10.802895 -6.845138 17.553981 2.706528 1.489956 -7.718307 -0.802598 -1.020342 50.092582 7.286740 -4.528530 -17.207620 -8.462371 -5.047776 0.877320 9.631232 10.174821 -1.503121 29.728253 -53.395065 -12.350669 -3.853016 2.984466 0.902150 0.148250 0.192840 0.264010 4.459317 -0.926742 4.797704 -1.590639 -22.112772 -2.557099 18.621565 64.362954 9.354087 1.907314 -1.877616 -0.345820 0.480430 0.428530 0.011060 
-2.363200 19.141100 -2.901320 -11.830595 23.436104 -6.526993 -14.977689 12.611080 1.985223 2.439080 -1.018898 -9.479109 -1.091995 4.110857 14.479705 -1.084242 4.077932 3.191369 0.306520 0.054040 -0.019760 18.751702 -9.553692 4.753127 0.036236 9.940214 -48.539226 3.857155 -11.373956 52.954916 -1.333720 -7.837894 1.233054 0.151670 0.598950 0.609050 -5.004318 -1.427390 -8.097108 20.220991 -11.643334 23.668863 -8.997654 -7.155401 18.514824 2.325503 0.727458 -7.161351 -2.640099 -0.061876 52.220309 7.991100 -3.996020 -21.370880 -7.511061 -3.992480 0.506990 10.410394 8.193382 -0.954351 24.611097 -49.473818 -9.257052 -3.800023 3.023203 0.969210 0.079530 0.276100 0.271920 4.585685 -1.049509 3.515805 -3.544258 -17.088051 -2.392579 14.031819 56.398580 6.478373 1.848948 -1.810389 -0.330110 0.524450 0.389390 -0.002390 
-2.232950 18.945530 -2.886070 -10.641122 21.649792 -5.495853 -15.043002 12.767487 2.087412 1.767877 -1.152322 -9.978559 -1.283611 4.290079 15.981819 -1.078392 4.202497 3.131875 0.363650 0.119750 0.027790 18.666470 -9.428546 4.790735 0.403917 10.096320 -48.773205 3.636280 -9.050443 45.827052 -1.026846 -6.303317 1.696491 0.199700 0.593380 0.629940 -4.727359 -1.846798 -8.081695 17.638756 -10.022508 23.040773 -6.660929 -6.354111 18.541585 2.191548 0.727394 -6.882246 -2.823633 0.583765 54.142972 6.666180 -3.339010 -20.183180 -7.260919 -3.638352 0.345301 10.725630 4.461534 -0.175168 18.603164 -42.502335 -5.646926 -3.825978 3.082790 0.944210 0.098610 0.287310 0.287480 4.637650 -0.683775 2.548584 -7.341085 -11.942887 -0.845708 14.014878 45.660031 5.653267 1.836225 -1.786857 -0.310430 0.522270 0.360660 -0.001010 
-2.108050 18.749650 -2.867430 -9.594268 21.529301 -5.423156 -15.113388 13.035233 2.218521 1.483808 -1.234976 -10.008790 -1.511924 4.589196 17.866037 -1.051395 4.432302 3.060605 0.320820 0.115440 -0.017190 18.540587 -9.464822 4.623537 0.690669 9.128263 -47.554144 3.403577 -7.194890 37.810135 -0.723378 -4.730928 2.251303 0.201570 0.631920 0.610410 -4.455581 -2.293941 -8.027927 15.566436 -9.611578 23.923381 -5.156774 -6.441557 18.467767 1.913981 0.354690 -7.035856 -3.920633 1.370665 55.094995 5.521800 -2.783790 -20.069420 -7.502969 -3.926268 0.463410 11.665119 2.723958 0.284277 14.602358 -35.225506 -3.522335 -3.873919 2.981514 0.940700 0.133340 0.286540 0.289420 5.411592 0.221504 2.402260 -7.787933 -9.336568 -1.229077 7.209924 38.477928 3.184671 1.807293 -1.588955 -0.335380 0.580380 0.379760 0.010860 
-2.009170 18.529910 -2.861790 -8.123101 19.361601 -6.427266 -15.225134 13.378232 2.383224 1.240202 -1.151236 -8.745028 -1.954595 5.086608 20.067590 -0.990004 4.758974 2.881898 0.409290 0.214370 0.108160 18.366782 -9.467470 4.444777 2.095358 8.581988 -44.941832 1.834117 -4.929027 29.678003 -0.533616 -3.123517 2.753563 0.240090 0.486820 0.621320 -3.992928 -2.900115 -8.012188 11.842294 -8.601744 27.415626 -3.743719 -6.021531 19.011629 1.633216 -0.466874 -6.892844 -5.847885 2.302716 53.969195 3.554980 -1.554730 -23.874680 -8.564272 -3.932098 0.195740 14.461221 2.982809 1.031689 8.396954 -28.588867 -1.625582 -3.792621 3.035719 0.995660 0.050060 0.382370 0.249860 6.917969 1.484238 2.344306 -8.948150 -5.493126 -1.457137 1.638506 30.225116 1.605543 1.855310 -1.405157 -0.290020 0.537520 0.330240 -0.031590 
